


Format                           : AVI
Format/Info                      : Audio Video Interleave
File size                        : 1.17 GiB
Duration                         : 1h 41mn
Overall bit rate                 : 1 645 Kbps
Writing library                  : VirtualDub build 32839/release

Video
ID                               : 0
Format                           : MPEG-4 Visual
Format profile                   : Advanced Simple@L5
Format settings, BVOP            : Yes
Format settings, QPel            : No
Format settings, GMC             : No warppoints
Format settings, Matrix          : Custom
Codec ID                         : XVID
Codec ID/Hint                    : XviD
Duration                         : 1h 41mn
Bit rate                         : 1 508 Kbps
Width                            : 720 pixels
Height                           : 304 pixels
Display aspect ratio             : 2.35:1
Frame rate                       : 25.000 fps
Color space                      : YUV
Chroma subsampling               : 4:2:0
Bit depth                        : 8 bits
Scan type                        : Progressive
Bits/(Pixel*Frame)               : 0.276
Stream size                      : 1.07 GiB (92%)
Writing library                  : XviD 1.2.1 (UTC 2008-12-04)

Audio
ID                               : 1
Format                           : MPEG Audio
Format version                   : Version 1
Format profile                   : Layer 3
Mode                             : Joint stereo
Mode extension                   : MS Stereo
Codec ID                         : 55
Codec ID/Hint                    : MP3
Duration                         : 1h 41mn
Bit rate mode                    : Constant
Bit rate                         : 128 Kbps
Channel(s)                       : 2 channels
Sampling rate                    : 44.1 KHz
Video delay                      : 4s 500ms
Stream size                      : 93.1 MiB (8%)
Alignment                        : Split accross interleaves
Interleave, duration             : 40 ms (1.00 video frame)
Interleave, preload duration     : 500 ms



 
http://www.imdb.com/title/tt1192628/







Users: 7.8/10 (10,028 votes) 150 reviews | Critics: 217 reviews Metascore: 75/100 (based on 35 reviews from Metacritic.com)

Rango is an ordinary chameleon who accidentally winds up in the town of Dirt, a lawless outpost in the Wild West in desperate need of a new sheriff.
Director:
Gore Verbinski
Writers:
John Logan, John Logan (story), and 2 more credits »
Stars:
Johnny Depp, Isla Fisher and Timothy Olyphant 







 
http://img225.imageshack.us/img225/3522/vlcsnap2011032718h13m15.png
 
http://img819.imageshack.us/img819/6240/vlcsnap2011032718h12m25.png
 
http://img24.imageshack.us/img24/599/vlcsnap2011032718h12m52.png


SOURCES:



VIDEO: ADDiCTED ... Thanks

AUDIO: Imagine ............. Thanks 

Ran a few filters usual rgb,sharpen and a few more .......

Apologies again no sample included been real busy today 

Enjoy !






Greetz to Imagine ,Flawl3ss,DiLLoN,BDK,NOiR,TOXiCiNK,THC,Ez,Rx,





